<?xml version="1.0" encoding="utf-8"?>
<!-- Generator: Adobe Illustrator 19.1.0, SVG Export Plug-In . SVG Version: 6.00 Build 0)  -->
<svg version="1.1" id="Layer_1" xmlns="http://www.w3.org/2000/svg" xmlns:xlink="http://www.w3.org/1999/xlink" x="0px" y="0px"
	 viewBox="-150 246 898 139" style="enable-background:new -150 246 898 139;" xml:space="preserve">
<style type="text/css">
	.st0{fill:#D6DE23;}
	.st1{fill:#404041;}
	.st2{fill:#FFFFFF;}
</style>
<path class="st0" d="M707.7,355.1H-72.5c-0.4,0-0.8-0.4-0.8-0.8v-0.5c0-0.4,0.4-0.8,0.8-0.8h780.2c0.4,0,0.8,0.4,0.8,0.8v0.5
	C708.5,354.7,708.2,355.1,707.7,355.1z"/>
<g>
	<g>
		<path class="st1" d="M-3.5,355c2.4,0,4.6-1.3,6.8-3.8l2,1.6c-0.3,0.4-0.6,0.8-1.1,1.4c-0.5,0.5-1.6,1.3-3.3,2.2
			c-1.8,0.9-3.7,1.4-5.8,1.4c-10.2,0-15.3-4.4-15.3-13.2c0-2.7,0.3-6.8,1-12.1c-4.4,1.4-8.3,2-11.7,2c-6.1,0-12.2-1.9-18.3-5.6
			c-3.5,6.1-6.9,11.3-10,15.6s-6.7,8.5-10.8,12.6c-8.5,8.3-18.7,12.4-30.6,12.4c-12,0-21.5-3.8-28.6-11.5c-6.3-7-9.4-15.5-9.4-25.6
			c0-10,3.2-19,9.7-26.8c6.6-7.7,14.9-11.6,25.2-11.6s18.1,3,23.5,9.1c1.3,1.6,2.2,2.9,2.7,3.7c4.9,2.1,10.5,5.5,16.8,10.4
			c4.7,3.8,8.2,6.5,10.5,7.9c1.3-2.4,3-5.5,5.2-9.5s3.9-7,5.1-9.1s3-5,5.3-8.9c2.4-3.8,4.3-6.7,5.8-8.7s3.5-4.4,6-7.4
			c2.5-3,4.8-5.2,6.9-6.6c6.3-4.5,11.5-7,15.8-7.8c2.4-0.4,4.4-0.5,6-0.5s3.5,0,5.5,0.1c2,0,4.8,0.6,8.5,1.6l-0.7,2.6
			c-2.2-0.6-4.5-1.1-7-1.4C3.1,305.1-2.1,333.7-3.5,355z M-73.2,322.6c0,6.7-1.9,12.7-5.8,17.9s-9.1,7.8-15.6,7.8
			c-4.3,0-7.8-1.3-10.4-3.8c-2.7-2.5-4-5.2-4-7.9c0-2.7,0.4-5,1.2-6.7c0.8-1.8,1.7-3.1,2.8-4c1-0.9,2.2-1.6,3.5-2.2
			c1.7-0.9,3.1-1.4,4.1-1.4l0.3,2.7c-2.3,0-4.4,1.1-6.3,3.3c-1.9,2.2-2.9,4.6-2.9,7.4c0,2.7,1.1,5.1,3.2,7c2.1,2,5,2.9,8.5,2.9
			c5.8,0,10.4-2.3,13.8-6.8s5-9.6,5-15.1s-1.1-10.4-3.4-14.5c-5-1.9-10-2.9-14.9-2.9c-9.5,0-16.1,4.4-20,13.2l-2.6-0.8
			c1-2.3,2.6-4.7,4.8-7.4c4.3-5.2,10.2-7.8,17.9-7.8c4.1,0,8.1,0.6,12.1,1.8l-0.3-0.4c-5-5.5-12.2-8.2-21.6-8.2s-17.1,3.6-23,10.9
			c-6,7.3-8.9,15.6-8.9,25c0,9.4,2.9,17.2,8.7,23.5c6.5,7.1,15.7,10.6,27.4,10.6c10.7,0,20.1-4,28.1-12.1c4-3.9,7.5-8,10.4-12.1
			c3-4.2,6.2-9.2,9.6-15.1c-3.1-2-6.8-4.7-11.2-8.2c-4.4-3.5-8.7-6.3-12.7-8.4C-73.9,314.5-73.2,318.5-73.2,322.6z M-47.8,326.5
			c5.8,3.5,11.2,5.2,16,5.2c4.9,0,9.2-0.8,13-2.3c2.2-15.4,6.3-34.5,12.3-57.3c-7.3,3.5-14,9.6-20,18.4c-4.5,6.4-9.8,15.2-16.1,26.6
			L-47.8,326.5z"/>
		<path class="st2" d="M5.9,266.5c1.6,0,3.5,0,5.5,0.1c2,0,4.8,0.6,8.5,1.6l-0.7,2.6c-2.2-0.6-4.5-1.1-7-1.4
			C3.1,305.1-2.1,333.7-3.5,355c2.4,0,4.6-1.3,6.8-3.8l2,1.6c-0.3,0.4-0.6,0.8-1.1,1.4c-0.5,0.5-1.6,1.3-3.3,2.2
			c-1.8,0.9-3.7,1.4-5.8,1.4c-10.2,0-15.3-4.4-15.3-13.2c0-2.7,0.3-6.8,1-12.1c-4.4,1.4-8.3,2-11.7,2c-6.1,0-12.2-1.9-18.3-5.6
			c-3.5,6.1-6.9,11.3-10,15.6s-6.7,8.5-10.8,12.6c-8.5,8.3-18.7,12.4-30.6,12.4c-12,0-21.5-3.8-28.6-11.5c-6.3-7-9.4-15.5-9.4-25.6
			c0-10,3.2-19,9.7-26.8c6.6-7.7,14.9-11.6,25.2-11.6s18.1,3,23.5,9.1c1.3,1.6,2.2,2.9,2.7,3.7c4.9,2.1,10.5,5.5,16.8,10.4
			c4.7,3.8,8.2,6.5,10.5,7.9c1.3-2.4,3-5.5,5.2-9.5s3.9-7,5.1-9.1s3-5,5.3-8.9c2.4-3.8,4.3-6.7,5.8-8.7s3.5-4.4,6-7.4
			c2.5-3,4.8-5.2,6.9-6.6c6.3-4.5,11.5-7,15.8-7.8C2.3,266.7,4.3,266.5,5.9,266.5 M-6.5,272.1c-7.3,3.5-14,9.6-20,18.4
			c-4.5,6.4-9.8,15.2-16.1,26.6l-5.2,9.4c5.8,3.5,11.2,5.2,16,5.2c4.9,0,9.2-0.8,13-2.3C-16.6,314-12.5,295-6.5,272.1 M-99.6,366.8
			c10.7,0,20.1-4,28.1-12.1c4-3.9,7.5-8,10.4-12.1c3-4.2,6.2-9.2,9.6-15.1c-3.1-2-6.8-4.7-11.2-8.2c-4.4-3.5-8.7-6.3-12.7-8.4
			c1.5,3.8,2.3,7.8,2.3,11.9c0,6.7-1.9,12.7-5.8,17.9s-9.1,7.8-15.6,7.8c-4.3,0-7.8-1.3-10.4-3.8c-2.7-2.5-4-5.2-4-7.9
			c0-2.7,0.4-5,1.2-6.7c0.8-1.8,1.7-3.1,2.8-4c1-0.9,2.2-1.6,3.5-2.2c1.7-0.9,3.1-1.4,4.1-1.4l0.3,2.7c-2.3,0-4.4,1.1-6.3,3.3
			c-1.9,2.2-2.9,4.6-2.9,7.4c0,2.7,1.1,5.1,3.2,7c2.1,2,5,2.9,8.5,2.9c5.8,0,10.4-2.3,13.8-6.8s5-9.6,5-15.1s-1.1-10.4-3.4-14.5
			c-5-1.9-10-2.9-14.9-2.9c-9.5,0-16.1,4.4-20,13.2l-2.6-0.8c1-2.3,2.6-4.7,4.8-7.4c4.3-5.2,10.2-7.8,17.9-7.8
			c4.1,0,8.1,0.6,12.1,1.8l-0.3-0.4c-5-5.5-12.2-8.2-21.6-8.2s-17.1,3.6-23,10.9c-6,7.3-8.9,15.6-8.9,25c0,9.4,2.9,17.2,8.7,23.5
			C-120.5,363.2-111.3,366.8-99.6,366.8 M5.9,262.5c-1.8,0-4,0.2-6.6,0.6l0,0l0,0c-4.9,0.8-10.6,3.6-17.5,8.5
			c-2.4,1.6-4.9,4-7.6,7.3c-2.5,3-4.6,5.5-6.1,7.5c-1.6,2.1-3.6,5.1-6,9c-2.4,3.8-4.2,6.9-5.4,9c-1.2,2.1-2.9,5.2-5.1,9.2
			c-1.2,2.1-2.2,4-3.1,5.6c-1.8-1.4-4-3.1-6.6-5.2l0,0l0,0c-6.1-4.7-11.6-8.2-16.6-10.4c-0.6-0.8-1.3-1.8-2.2-2.9l-0.1-0.1l-0.1-0.1
			c-6.1-7-15-10.5-26.5-10.5s-21,4.4-28.2,13.2c-7,8.5-10.6,18.4-10.6,29.3c0,11,3.5,20.5,10.4,28.2l0,0l0,0
			c7.8,8.4,18.4,12.7,31.5,12.7c13,0,24.2-4.6,33.4-13.5c4.3-4.3,8-8.7,11.2-13.1c2.6-3.6,5.3-7.8,8.2-12.6
			c5.6,2.8,11.2,4.2,16.8,4.2c2.2,0,4.6-0.3,7.1-0.7c-0.2,2.8-0.4,5-0.4,6.8c0,6.4,2.5,17.2,19.3,17.2c2.7,0,5.3-0.6,7.6-1.8
			c2.4-1.2,3.7-2.2,4.6-3.2c0.5-0.6,0.9-1.1,1.2-1.5l2.3-3.1l-3-2.4l-2-1.6l-3-2.4l-1.7,2c1.9-19.4,6.6-44.1,14-73.7
			c1,0.2,1.9,0.4,2.8,0.7l3.9,1.1l1-4l0.7-2.6l1-3.8l-3.8-1c-4-1.1-7.1-1.7-9.4-1.7C9.4,262.6,7.6,262.5,5.9,262.5L5.9,262.5z
			 M-42.4,324.9l3.2-5.9c6.2-11.2,11.5-20,15.9-26.2c3.3-4.7,6.7-8.7,10.3-11.7c-4.4,17.5-7.5,32.7-9.4,45.3c-2.8,0.9-6,1.3-9.4,1.3
			C-35,327.7-38.5,326.8-42.4,324.9L-42.4,324.9z M-99.6,362.8c-10.7,0-18.7-3.1-24.5-9.3c-5.2-5.6-7.7-12.4-7.7-20.8
			c0-8.5,2.6-15.9,8-22.5c5.2-6.4,11.7-9.4,19.9-9.4c0.3,0,0.6,0,0.9,0c-4.8,1.4-8.9,4.1-12.1,8c-2.4,2.9-4.2,5.7-5.3,8.3l-1.8,4.1
			l4.3,1.3l2.6,0.8l3.4,1.1l1.4-3.3c3.3-7.4,8.5-10.8,16.4-10.8c3.9,0,8,0.7,12,2.1c1.5,3.2,2.3,7,2.3,11.2c0,4.7-1.4,8.9-4.3,12.8
			c-2.6,3.5-6,5.2-10.6,5.2c-2.5,0-4.4-0.6-5.8-1.9c-1.3-1.2-1.9-2.5-1.9-4.1c0-1.8,0.6-3.3,1.9-4.7c1.7-1.9,2.9-1.9,3.3-1.9h4.4
			l-0.4-4.4l-0.3-2.7l-0.4-3.6h-3.6c-1.7,0-3.5,0.6-5.8,1.8c-1.6,0.7-3.1,1.6-4.4,2.8c-1.5,1.3-2.7,3.1-3.8,5.4
			c-1.1,2.3-1.6,5.1-1.6,8.4c0,3.9,1.8,7.5,5.3,10.8c3.4,3.3,7.9,4.9,13.2,4.9c7.8,0,14.2-3.2,18.8-9.4c4.4-5.9,6.6-12.7,6.6-20.3
			c0-1.1-0.1-2.3-0.2-3.4c1.4,1,2.7,2,4.1,3.1c3.1,2.5,5.9,4.6,8.4,6.3c-2.7,4.4-5.2,8.3-7.5,11.6c-2.8,4-6.1,7.9-10,11.6l0,0l0,0
			C-81.7,359.2-89.9,362.8-99.6,362.8L-99.6,362.8z"/>
	</g>
	<path class="st1" d="M44,344.5c-1.2,1.5-2.8,3-4.8,4.2c-2,1.2-4.7,1.9-8,1.9s-6-1-8.3-3.1s-3.4-5-3.4-8.9c0-0.7,0.1-1.9,0.3-3.5
		l8.9-49.1c1.6-9,3.9-15.4,6.7-19.2c2.9-3.8,6.7-5.7,11.4-5.7c3.3,0,6,1.2,8.1,3.7s3.2,6.2,3.2,11.2s-1.9,12.1-5.8,21.4
		c-3.9,9.3-5.8,16-5.8,20.3H44c0-4.8,1.9-11.7,5.7-20.7s5.7-16.1,5.7-21.5c0-3.3-0.8-6.1-2.2-8.5c-1.5-2.4-3.3-3.5-5.5-3.5
		c-0.1,2.4-1.7,13-4.7,31.8c-3,18.9-6.1,36.4-9.1,52.6c2.5,0,4.9-1.3,7.1-4c2.2-2.6,3.7-5.3,4.6-7.9l1.5-4.1l2.5,1.1
		c-0.3,1.3-1,3.1-2.1,5.5C46.3,341,45.1,343,44,344.5z"/>
	<path class="st1" d="M71.9,350.7c-4.1,0-7.3-1-9.6-3.1s-3.5-4.8-3.5-8.2c0-1.2,0.7-6.1,2.2-14.9l4.5-24.4h-5.7l0.3-2.5H66
		c6.7,0,11.7-0.3,14.9-0.8l1.9-0.4l-9.4,51.5c2.7-0.3,5-1.5,6.8-3.8l2,1.6C79.4,349,76,350.7,71.9,350.7z M70.1,283.3
		c-1.9-1.9-2.9-4.2-2.9-7c0-2.8,1-5.1,2.9-7c1.9-2,4.2-2.9,7-2.9s5.1,1,7,2.9c2,2,2.9,4.3,2.9,7c0,2.7-1,5-2.9,7
		c-2,1.9-4.3,2.9-7,2.9S72.1,285.2,70.1,283.3z"/>
	<path class="st1" d="M102.7,347.1c9,0,13.5-6.6,13.5-19.9c0-3.3-0.5-7.1-1.4-11.6c-1-4.5-1.5-7.2-1.7-8.3
		c-5.5,5.7-11.8,9.2-18.7,10.4v-3.3c6.5-1.5,12.7-5.2,18.4-11.2v-0.5c0-2.2,0.3-4.3,1-6.4c0.6-2.1,1.3-3.6,1.9-4.6l1-1.5h3.3
		c0,4,0.6,7.7,1.9,11c1.3,3.3,2.7,6,4.2,8c1.5,2,3,4.7,4.2,8c1.3,3.3,1.9,7,1.9,11c0,6.5-2.4,11.8-7.3,16.1
		c-4.9,4.3-10.7,6.4-17.5,6.4s-12-1.5-15.5-4.6s-5.2-6.7-5.2-10.7s1-7,3-8.7c2-1.8,4.4-2.7,7.1-2.7c2.7,0,5,0.9,6.8,2.7
		s2.7,4,2.7,6.8c0,2.8-0.9,5.1-2.6,7c-1.7,1.9-4,2.9-6.7,2.9c-1.2,0-2.4-0.2-3.7-0.5C95.2,345.7,98.4,347.1,102.7,347.1z"/>
	<path class="st1" d="M152.9,347.1c9,0,13.5-6.6,13.5-19.9c0-3.3-0.5-7.1-1.4-11.6c-1-4.5-1.5-7.2-1.7-8.3
		c-5.5,5.7-11.8,9.2-18.7,10.4v-3.3c6.5-1.5,12.7-5.2,18.4-11.2v-0.5c0-2.2,0.3-4.3,1-6.4c0.6-2.1,1.3-3.6,1.9-4.6l1-1.5h3.3
		c0,4,0.6,7.7,1.9,11c1.3,3.3,2.7,6,4.2,8c1.5,2,3,4.7,4.2,8c1.3,3.3,1.9,7,1.9,11c0,6.5-2.4,11.8-7.3,16.1
		c-4.9,4.3-10.7,6.4-17.5,6.4s-12-1.5-15.5-4.6s-5.2-6.7-5.2-10.7s1-7,3-8.7c2-1.8,4.4-2.7,7.1-2.7s5,0.9,6.8,2.7s2.7,4,2.7,6.8
		c0,2.8-0.9,5.1-2.6,7c-1.7,1.9-4,2.9-6.7,2.9c-1.2,0-2.4-0.2-3.7-0.5C145.4,345.7,148.6,347.1,152.9,347.1z"/>
	<path class="st1" d="M238.4,350.7c-8,0-12.4-3.5-13.1-10.5c-4,7-9,10.5-15.1,10.5s-10.9-1.8-14.5-5.5c-3.6-3.7-5.4-8.8-5.4-15.5
		c0-10.4,2.5-18.5,7.6-24.4c5.1-5.9,11.7-8.9,19.8-8.9c6.6,0,11,3.1,13.2,9.4c0.5-2.7,1-5.5,1.5-8.2c6.7,0,11.7-0.3,15-0.8l1.8-0.4
		l-9.4,51.5c2.7-0.3,5-1.5,6.8-3.8l2,1.6C245.9,349,242.5,350.7,238.4,350.7z M207.3,345.2c1,1.6,2.7,2.4,4.8,2.4s4.4-1.2,6.7-3.5
		c3-3.1,5.4-7,7.2-11.7c0.3-1.2,0.8-4,1.6-8.5c0.8-4.5,1.4-8.2,2-11.1c-0.3-3.5-1.2-6.5-2.9-9c-1.6-2.5-3.7-3.8-6.1-3.8
		c-4.5,0-8,4-10.8,11.9c-2.7,8-4.1,16.2-4.1,24.9C205.7,340.7,206.2,343.6,207.3,345.2z"/>
	<g>
		<path class="st1" d="M319.4,375.9c9.5,0,17-2,22.3-5.9c5.3-3.9,8-9.1,8-15.5c0-4.6-1.2-8.7-3.5-12.3c-2.3-3.5-5.2-6.5-8.7-8.8
			c-3.5-2.3-7-4.6-10.6-6.9c-3.6-2.3-6.9-5.1-10-8.6s-5.1-7.4-6.1-11.7c-8.3-2.5-13.7-7.6-16.4-15.4c-1-3-1.5-6.1-1.5-9.4
			c0-3.3,0.5-6.7,1.5-10.2c2.1-7,5.5-12.3,10.2-15.8l1.5,2.2c-4.3,3.1-7.4,7.9-9.3,14.5c-0.9,3.3-1.4,6.4-1.4,9.4s0.5,5.9,1.4,8.6
			c2.2,6.6,6.7,11.1,13.5,13.4c-0.2-1-0.3-2.5-0.3-4.6c0-11.9,4.3-21.5,13-28.9c8.6-7.4,19.2-11,31.6-11c8.2,0,14.7,2.2,19.6,6.7
			c4.2,3.9,6.3,8.7,6.3,14.4c0,5.7-1.9,10.6-5.7,14.7s-9,6.2-15.4,6.2c-3.5,0-6.5-0.7-8.7-2c-4.6,3.5-10.1,6.1-16.5,7.6
			c1.8,1.7,6.1,4.9,12.7,9.5c6.6,4.6,11.7,9.1,15,13.3c3.3,4.2,5,9.2,5,14.8c0,10.4-4,18.8-12.1,25.2c-8,6.5-18.2,9.7-30.5,9.7
			s-21.6-2.7-27.9-8.2c-5.5-4.6-8.2-10.3-8.2-17s2.2-12.4,6.5-17.2c4.3-4.8,9.7-7.2,16.2-7.2s11.2,1.4,14.3,4.3
			c3.1,2.9,4.6,6.3,4.6,10.4c0,4.1-1.3,7.7-3.8,10.9c-2.5,3.2-5.8,4.8-9.7,4.8c-4,0-7.2-1.3-9.5-3.8c-2.2-2.2-3.4-4.9-3.7-8.2
			c-0.1-0.9-0.1-1.5,0-1.6l2.6,0.1c-0.1,3.2,0.9,5.8,3,7.9c1.7,1.9,4.2,2.9,7.6,2.9c3.3,0,6-1.3,8-3.9s3-5.6,3-9s-1.2-6.2-3.5-8.2
			c-2.6-2.6-6.9-4-12.7-4c-5.8,0-10.6,2.1-14.5,6.3s-5.7,9.3-5.7,15.3s2.5,11,7.4,15.2c2.9,2.5,5.9,4.4,8.9,5.5
			C310.2,375.4,314.3,375.9,319.4,375.9z M342.6,282.1c0-4,1-7.3,3.1-10c2-2.6,4.8-4,8.4-4c6.1,0,9.1,3.3,9.1,10
			c0,6.7-3.3,13-10,18.9c2,0.9,4.1,1.4,6.3,1.4c5.6,0,10.1-1.8,13.5-5.5c3.4-3.7,5-8,5-13s-1.8-9.2-5.5-12.6c-4.5-4-10.3-6-17.6-6
			c-7.3,0-13.5,1.8-18.5,5.3c-7.9,5.6-11.9,12.9-11.9,21.8c0,7.4,2.5,12.7,7.4,16.1c6.1-1.4,11.7-3.8,16.9-7.4
			C344.7,293.5,342.6,288.5,342.6,282.1z M353.9,270.6c-2.7,0-4.8,1-6.3,3.1c-1.5,2.1-2.2,4.9-2.2,8.3c0,5.9,1.9,10.4,5.6,13.5
			c2.7-1.9,5-4.5,6.8-7.8c1.8-3.3,2.7-6.5,2.7-9.7C360.4,273.1,358.3,270.6,353.9,270.6z"/>
		<path class="st2" d="M304.7,255.4l1.5,2.2c-4.3,3.1-7.4,7.9-9.3,14.5c-0.9,3.3-1.4,6.4-1.4,9.4s0.5,5.9,1.4,8.6
			c2.2,6.6,6.7,11.1,13.5,13.4c-0.2-1-0.3-2.5-0.3-4.6c0-11.9,4.3-21.5,13-28.9c8.6-7.4,19.2-11,31.6-11c8.2,0,14.7,2.2,19.6,6.7
			c4.2,3.9,6.3,8.7,6.3,14.4c0,5.7-1.9,10.6-5.7,14.7c-3.8,4.1-9,6.2-15.4,6.2c-3.5,0-6.5-0.7-8.7-2c-4.6,3.5-10.1,6.1-16.5,7.6
			c1.8,1.7,6.1,4.9,12.7,9.5c6.7,4.6,11.7,9.1,15,13.3c3.3,4.2,5,9.2,5,14.8c0,10.4-4,18.8-12.1,25.2c-8,6.5-18.2,9.7-30.5,9.7
			s-21.6-2.7-27.9-8.2c-5.5-4.6-8.2-10.3-8.2-17c0-6.7,2.2-12.4,6.5-17.2s9.7-7.2,16.2-7.2s11.2,1.4,14.3,4.3
			c3.1,2.9,4.6,6.3,4.6,10.4c0,4.1-1.3,7.7-3.8,10.9c-2.5,3.2-5.8,4.8-9.7,4.8c-4,0-7.2-1.3-9.5-3.8c-2.2-2.2-3.4-4.9-3.7-8.2
			c-0.1-0.9-0.1-1.5,0-1.6l2.6,0.1c-0.1,3.2,0.9,5.8,3,7.9c1.7,1.9,4.2,2.9,7.6,2.9c3.3,0,6-1.3,8-3.9s3-5.6,3-9s-1.2-6.2-3.5-8.2
			c-2.6-2.6-6.9-4-12.7-4c-5.8,0-10.6,2.1-14.5,6.3c-3.8,4.2-5.7,9.3-5.7,15.3s2.5,11,7.4,15.2c2.9,2.5,5.9,4.4,8.9,5.5
			c3,1.1,7.1,1.6,12.2,1.6c9.5,0,17-2,22.3-5.9c5.3-3.9,8-9.1,8-15.5c0-4.6-1.2-8.7-3.5-12.3c-2.3-3.5-5.2-6.5-8.7-8.8
			c-3.5-2.3-7-4.6-10.6-6.9c-3.6-2.3-6.9-5.1-10-8.6s-5.1-7.4-6.1-11.7c-8.3-2.5-13.7-7.6-16.4-15.4c-1-3-1.5-6.1-1.5-9.4
			c0-3.3,0.5-6.7,1.5-10.2C296.5,264.2,300,258.9,304.7,255.4 M332,304.6c6.1-1.4,11.7-3.8,16.9-7.4c-4.2-3.7-6.3-8.8-6.3-15.1
			c0-4,1-7.3,3.1-10c2-2.6,4.8-4,8.4-4c6.1,0,9.1,3.3,9.1,10c0,6.7-3.3,13-10,18.9c2,0.9,4.1,1.4,6.3,1.4c5.6,0,10.1-1.8,13.5-5.5
			c3.4-3.7,5-8,5-13s-1.8-9.2-5.5-12.6c-4.5-4-10.3-6-17.6-6c-7.3,0-13.5,1.8-18.5,5.3c-7.9,5.6-11.9,12.9-11.9,21.8
			C324.6,295.9,327,301.2,332,304.6 M350.9,295.6c2.7-1.9,5-4.5,6.8-7.8c1.8-3.3,2.7-6.5,2.7-9.7c0-5-2.2-7.5-6.5-7.5
			c-2.7,0-4.8,1-6.3,3.1c-1.5,2.1-2.2,4.9-2.2,8.3C345.3,288,347.2,292.5,350.9,295.6 M305.6,249.7l-3.3,2.5
			c-5.4,4.1-9.3,10.1-11.7,17.9l0,0l0,0c-1.1,3.9-1.7,7.7-1.7,11.3c0,3.7,0.6,7.3,1.7,10.7c2.8,8.4,8.5,14.2,16.9,17.3
			c1.3,4.1,3.5,7.9,6.5,11.3c2,2.2,4,4.2,6.2,5.9c-2.7-0.8-5.8-1.1-9.2-1.1c-7.6,0-14,2.9-19.1,8.5c-5,5.5-7.5,12.2-7.5,19.9
			c0,7.9,3.2,14.6,9.6,20c7,6.1,17.2,9.1,30.5,9.1c13.2,0,24.3-3.6,33-10.6c9-7.2,13.6-16.8,13.6-28.3c0-6.5-2-12.3-5.8-17.3
			c-3.6-4.5-8.9-9.3-15.9-14.1c-2.8-1.9-5-3.5-6.7-4.7c3.1-1.2,5.9-2.8,8.6-4.5c2.4,0.9,5.2,1.4,8.3,1.4c7.6,0,13.8-2.5,18.3-7.5
			c4.5-4.9,6.8-10.7,6.8-17.4c0-6.8-2.5-12.6-7.5-17.3l0,0l0,0c-5.6-5.1-13.2-7.7-22.3-7.7c-13.4,0-24.9,4-34.2,12
			c-9,7.7-13.8,17.8-14.3,29.9c-2.6-2-4.4-4.6-5.5-8c-0.8-2.3-1.2-4.8-1.2-7.3c0-2.6,0.4-5.4,1.2-8.3c1.6-5.6,4.2-9.7,7.8-12.3
			l3.2-2.3l-2.2-3.2l-1.7-2.4L305.6,249.7L305.6,249.7z M361.3,294.4c3.9-5.1,5.9-10.5,5.9-16.2c0-5.7-2-9.9-5.6-12.1
			c3.3,0.8,6,2.2,8.3,4.2c2.8,2.7,4.2,5.9,4.2,9.7c0,4-1.3,7.3-4,10.3C367.8,292.7,364.9,294.1,361.3,294.4L361.3,294.4z
			 M332.9,300.2c-2.9-2.6-4.3-6.5-4.3-11.7c0-7.6,3.3-13.7,10.2-18.6c2.1-1.4,4.4-2.5,6.9-3.3c-1.2,0.8-2.3,1.8-3.2,3
			c-2.6,3.3-3.9,7.5-3.9,12.4c0,5.5,1.4,10.3,4.1,14.2C339.6,298,336.3,299.3,332.9,300.2L332.9,300.2z M351.3,290
			c-1.3-2.1-1.9-4.7-1.9-7.9c0-2.6,0.5-4.6,1.5-6c0.7-1,1.6-1.5,3.1-1.5c1.4,0,2.5,0,2.5,3.5c0,2.5-0.7,5.1-2.2,7.7
			C353.4,287.4,352.4,288.8,351.3,290L351.3,290z M316.4,363.8c5.2,0,9.7-2.2,12.9-6.3c3.1-3.9,4.6-8.4,4.6-13.4
			c0-4-1.1-7.5-3.4-10.6c1.6,1.1,3.2,2.1,4.8,3.2c3,2,5.5,4.6,7.5,7.7c1.9,2.9,2.8,6.2,2.8,10.1c0,5.2-2.1,9.2-6.3,12.3
			c-4.6,3.4-11.3,5.1-19.9,5.1c-4.6,0-8.3-0.5-10.9-1.4c-2.6-0.9-5.1-2.5-7.6-4.7l0,0l0,0c-4-3.4-6-7.4-6-12.2c0-5,1.5-9.1,4.7-12.6
			c3.1-3.4,6.8-5,11.5-5s8,0.9,9.9,2.8l0.1,0.1l0.1,0.1c1.5,1.3,2.2,3,2.2,5.3c0,2.5-0.7,4.7-2.2,6.6c-1.2,1.6-2.7,2.3-4.8,2.3
			c-3.2,0-4.3-1.2-4.6-1.5l-0.1-0.1l-0.1-0.1c-1.3-1.3-1.9-2.9-1.8-5l0.1-3.9l-3.9-0.2l-2.6-0.1l-2.6-0.1l-1.2,2.3
			c-0.5,1.1-0.6,2.2-0.4,3.8c0.4,4.2,2,7.7,4.8,10.6C307.1,362.1,311.3,363.8,316.4,363.8L316.4,363.8z"/>
	</g>
	<path class="st1" d="M415,320.9c-1.9-1.9-2.9-4.2-2.9-7c0-2.8,1-5.1,2.9-7c1.9-2,4.2-2.9,7-2.9c0.8,0,1.9,0.2,3.1,0.5
		c-1.7-3.2-5-4.8-9.7-4.8s-8.9,3-12.5,9s-5.5,14.9-5.5,26.7c0,4.1,0.9,7.1,2.8,9.1c1.9,2,4.2,2.9,7,2.9s5.4-0.5,7.7-1.6
		c2.3-1.1,4.2-2.4,5.5-3.9c1.4-1.5,2.5-3.1,3.5-4.7c1.8-3,2.7-4.9,2.7-5.7l2.5,1.1c-0.3,1.5-1.1,3.4-2.5,5.8
		c-1.4,2.4-2.9,4.4-4.5,5.9s-4,3-7.2,4.3c-3.2,1.3-6.7,2-10.6,2c-7.4,0-12.9-1.7-16.7-5.2s-5.7-8.3-5.7-14.4
		c0-10.8,2.7-19.3,8.1-25.4c5.4-6.1,12.7-9.2,22-9.2c6.3,0,11.1,1.6,14.5,4.8s5,7.4,5,12.5c0,3.3-1,5.8-2.9,7.5
		c-2,1.7-4.3,2.6-6.9,2.6C419.2,323.8,416.9,322.9,415,320.9z"/>
	<path class="st1" d="M488.5,347.9c2.2,0,4.5-1.3,6.8-3.8l2,1.6c-0.6,1.3-2,2.4-4.2,3.4s-4.6,1.5-7.2,1.5c-8.3,0-12.4-3.7-12.4-11.2
		c0-3.2,0.8-8.9,2.5-17c1.6-8.2,2.5-13.5,2.5-16.1c0-3.9-1.9-5.9-5.6-5.9c-3.1,0-6.1,2.1-8.9,6.3c-2.9,4.2-5.2,9.9-7,17l-4.5,25.6
		H436l15.1-85.6c-2.7,0.3-5,1.5-6.8,3.8l-2-1.6c2.7-3.3,6.2-4.9,10.3-4.9s7.3,1,9.6,3.1s3.4,5,3.4,8.9c0,0.7-0.1,1.9-0.3,3.5
		l-5.7,32.5c3.7-8.4,9.5-12.5,17.3-12.5c5.4,0,9.5,1.5,12.5,4.6c3,3,4.5,7.3,4.5,12.6c0,2.8-0.9,8.2-2.6,16.3
		C489.6,337.9,488.7,343.9,488.5,347.9z"/>
	<path class="st1" d="M533.2,296.4c11.5,0,17.3,4.6,17.3,13.8c0,5.7-2.7,10.1-8.1,13c-5.4,3-13.1,4.5-23.1,4.6
		c-0.2,3.3-0.3,5.9-0.3,7.8c0,4.1,0.9,7.1,2.8,9.1c1.9,2,4.2,2.9,7,2.9s5.4-0.5,7.7-1.6c2.3-1.1,4.2-2.4,5.5-3.9
		c1.4-1.5,2.5-3.1,3.5-4.7c1.8-3,2.7-4.9,2.7-5.7l2.5,1.1c-0.3,1.5-1.1,3.4-2.5,5.8s-2.9,4.4-4.5,5.9s-4,3-7.2,4.3s-6.7,2-10.6,2
		c-7.4,0-12.9-1.7-16.7-5.2s-5.7-8.3-5.7-14.4c0-10.8,2.7-19.3,8-25.4C517,299.5,524.2,296.4,533.2,296.4z M544.5,302.7
		c-1.8-2-4.4-2.9-7.9-2.9s-6.9,2.1-10.2,6.3c-3.3,4.2-5.5,10.4-6.6,18.5c18.3-0.1,27.4-4.9,27.4-14.5
		C547.1,307.2,546.2,304.7,544.5,302.7z"/>
	<path class="st1" d="M582.8,344.5c-1.2,1.5-2.8,3-4.8,4.2c-2,1.3-4.7,1.9-8,1.9s-6-1-8.3-3.1s-3.4-5-3.4-8.9c0-0.7,0.1-1.9,0.3-3.5
		l8.9-49.1c1.6-9,3.9-15.4,6.8-19.2c2.9-3.8,6.7-5.7,11.4-5.7c3.3,0,6,1.2,8.1,3.7S597,271,597,276s-1.9,12.1-5.8,21.4
		c-3.9,9.3-5.8,16-5.8,20.3h-2.5c0-4.8,1.9-11.7,5.7-20.7s5.7-16.1,5.7-21.5c0-3.3-0.8-6.1-2.2-8.5c-1.5-2.4-3.3-3.5-5.5-3.5
		c-0.1,2.4-1.7,13-4.7,31.8c-3,18.9-6.1,36.4-9.1,52.6c2.5,0,4.9-1.3,7.1-4c2.2-2.6,3.7-5.3,4.6-7.9l1.5-4l2.5,1.1
		c-0.3,1.3-1,3.1-2.1,5.5C585.2,341,584,343,582.8,344.5z"/>
	<path class="st1" d="M620.8,344.5c-1.2,1.5-2.8,3-4.8,4.2c-2,1.3-4.7,1.9-8,1.9s-6-1-8.3-3.1s-3.4-5-3.4-8.9c0-0.7,0.1-1.9,0.3-3.5
		l8.9-49.1c1.6-9,3.9-15.4,6.8-19.2c2.9-3.8,6.7-5.7,11.4-5.7c3.3,0,6,1.2,8.1,3.7S635,271,635,276s-1.9,12.1-5.8,21.4
		c-3.9,9.3-5.8,16-5.8,20.3h-2.5c0-4.8,1.9-11.7,5.7-20.7s5.7-16.1,5.7-21.5c0-3.3-0.8-6.1-2.2-8.5c-1.5-2.4-3.3-3.5-5.5-3.5
		c-0.1,2.4-1.7,13-4.7,31.8c-3,18.9-6.1,36.4-9.1,52.6c2.5,0,4.9-1.3,7.1-4c2.2-2.6,3.7-5.3,4.6-7.9l1.5-4.1l2.5,1.1
		c-0.3,1.3-1,3.1-2.1,5.5C623.1,341,621.9,343,620.8,344.5z"/>
	<path class="st1" d="M663.2,296.4c11.5,0,17.3,4.6,17.3,13.8c0,5.7-2.7,10.1-8.1,13c-5.4,3-13.1,4.5-23.1,4.6
		c-0.2,3.3-0.3,5.9-0.3,7.8c0,4.1,0.9,7.1,2.8,9.1c1.9,2,4.2,2.9,7,2.9s5.4-0.5,7.7-1.6c2.3-1.1,4.2-2.4,5.5-3.9
		c1.4-1.5,2.5-3.1,3.5-4.7c1.8-3,2.7-4.9,2.7-5.7l2.5,1.1c-0.3,1.5-1.1,3.4-2.5,5.8s-2.9,4.4-4.5,5.9s-4,3-7.2,4.3s-6.7,2-10.6,2
		c-7.4,0-12.9-1.7-16.7-5.2s-5.7-8.3-5.7-14.4c0-10.8,2.7-19.3,8-25.4C647,299.5,654.2,296.4,663.2,296.4z M674.4,302.7
		c-1.8-2-4.4-2.9-7.9-2.9s-6.9,2.1-10.2,6.3c-3.3,4.2-5.5,10.4-6.6,18.5c18.3-0.1,27.4-4.9,27.4-14.5
		C677.1,307.2,676.2,304.7,674.4,302.7z"/>
	<path class="st1" d="M688.7,301.3c2.7-3.3,6.2-4.9,10.3-4.9s7.3,1,9.6,3.1s3.4,5,3.4,8.9v0.8c4.1-8.5,9.4-12.8,16-12.8
		c7,0,10.5,3.6,10.5,10.9c0,3-1,6.2-3,9.5c-2,3.4-4,6.6-6,9.6s-3,5.8-3,8.1h-3.3c0-3.4,2-7.9,5.9-13.6s5.9-10.2,5.9-13.3
		s-0.6-5.3-1.8-6.4c-1.2-1.1-3-1.7-5.5-1.7c-2.4,0-4.8,1-7.1,3.1c-2.3,2.1-4.3,4.7-5.8,7.9c-2.5,4.7-4.1,8.6-4.9,11.6v0.1l-4.9,27.1
		h-16.4l9-50.3c-2.7,0.3-5,1.5-6.8,3.8L688.7,301.3z"/>
</g>
</svg>
